<svg width="166" height="32" viewBox="0 0 166 32" fill="none" xmlns="http://www.w3.org/2000/svg">
<g clip-path="url(#clip0_102_16)">
<path d="M97.1005 31.4961H93.7239V19.426H82.4435V31.4866H79.0574V5.35059H82.4435V15.9285H93.6956V5.36959H97.1099V31.4961H97.1005Z" fill="#10375C"/>
<path d="M145.816 31.4964H142.694C142.685 31.3728 142.675 31.2588 142.675 31.1352C142.675 27.2481 142.694 23.3609 142.666 19.4643C142.666 18.4664 142.138 17.6776 141.411 17.0123C141.072 16.6796 140.657 16.4325 140.204 16.2995C139.751 16.1664 139.27 16.1474 138.808 16.2424C137.554 16.4895 136.714 17.3164 136.158 18.4664C135.696 19.4358 135.762 20.4622 135.762 21.4982C135.762 24.739 135.762 27.9894 135.762 31.2398C135.762 31.3253 135.743 31.4013 135.733 31.4869H132.762C132.753 31.3728 132.744 31.2493 132.744 31.1352C132.744 27.7138 132.734 24.2923 132.744 20.8614C132.762 20.1391 132.668 19.4168 132.461 18.723C132.121 17.6395 131.47 16.7557 130.338 16.385C129.725 16.1759 129.065 16.1474 128.433 16.309C127.83 16.461 127.273 16.6416 126.792 17.0313C126.283 17.44 126.037 18.0292 125.83 18.628C125.415 19.816 125.575 21.0515 125.566 22.268C125.547 25.2237 125.566 28.189 125.566 31.1447V31.4679H122.453C122.444 31.3633 122.435 31.2683 122.425 31.1637C122.425 27.02 122.406 22.8762 122.435 18.7325C122.435 17.6966 122.831 16.7747 123.444 15.9383C124.104 15.0449 124.991 14.3416 126.009 13.914C126.396 13.7524 126.801 13.6383 127.216 13.5813C127.98 13.4673 128.754 13.2962 129.518 13.3437C130.631 13.4198 131.791 13.4958 132.725 14.2466C133.149 14.5887 133.507 15.0259 133.894 15.4156C133.97 15.4916 134.026 15.5772 134.111 15.6817C134.404 15.4156 134.668 15.1495 134.951 14.8929C135.63 14.2846 136.441 13.8474 137.318 13.5908C137.676 13.4863 138.063 13.4768 138.45 13.4293C138.799 13.3817 139.148 13.2962 139.487 13.3152C141.572 13.4103 143.42 14.085 144.835 15.7007C145.269 16.1949 145.561 16.7937 145.703 17.4304C145.976 18.6945 145.807 19.987 145.816 21.2606C145.844 24.4539 145.825 27.6473 145.825 30.8311L145.816 31.4964Z" fill="#10375C"/>
<path d="M74.2284 31.5245C74.0492 31.572 73.8606 31.6101 73.6719 31.6291C72.7759 31.6386 71.8893 31.6291 70.9933 31.6291C70.8424 31.6196 70.6915 31.5911 70.55 31.553C70.55 30.3175 70.55 29.139 70.55 27.951C70.55 25.499 70.5972 23.0565 70.5217 20.6044C70.5029 19.3404 69.9841 18.1239 69.0881 17.24C68.541 16.6983 67.8054 16.3941 67.0414 16.3656C66.6169 16.3181 66.1831 16.3276 65.7492 16.3751C64.8532 16.5272 64.0609 16.8979 63.4573 17.6202C62.9668 18.2189 62.599 18.9032 62.3632 19.635C62.2406 20.0722 62.184 20.5189 62.1934 20.9656C62.184 24.33 62.1934 27.7039 62.1934 31.0683V31.5055C62.0614 31.572 61.9199 31.6101 61.769 31.6386C60.9107 31.6481 60.0524 31.6386 59.1847 31.6386C59.0432 31.6196 58.9111 31.5911 58.7697 31.5435V28.2171C58.7697 25.537 58.7697 22.8569 58.7791 20.1767C58.798 19.3024 58.9866 18.4375 59.345 17.6392C59.7506 16.6508 60.3636 15.7669 61.1276 15.0256C61.835 14.3223 62.7027 13.7995 63.6459 13.4859C64.2684 13.2958 64.9004 13.1628 65.5323 13.0677C66.051 12.9727 66.5698 12.9347 67.098 12.9632C67.7299 13.0107 68.3524 13.1913 68.9843 13.3053C69.8426 13.4669 70.5972 13.8756 71.2951 14.3698C72.3986 15.1396 73.3324 16.071 73.7946 17.3731C73.9455 17.8292 74.0492 18.2949 74.0775 18.7701C74.3793 22.5527 74.1341 26.3353 74.2096 30.1274C74.2379 30.5646 74.2284 31.0018 74.2284 31.5245Z" fill="#499BE9"/>
<path d="M54.6291 31.6006C53.469 31.6386 52.2994 31.6196 51.0733 31.6101C51.0733 30.9828 51.0733 30.4601 51.0733 29.9279C51.0733 27.9891 51.0733 26.0503 51.0827 24.1114C51.0827 23.1515 51.111 22.1821 51.0639 21.2222C50.979 19.635 50.3565 18.295 48.9983 17.4111C48.6022 17.145 48.1023 17.0404 47.6496 16.8789C46.7818 16.5557 45.8858 16.6033 44.9898 16.6128C43.8391 16.6318 42.7356 17.0309 41.8301 17.7437C41.0096 18.3805 40.2833 19.1313 39.906 20.1293C39.7457 20.5664 39.6325 21.0226 39.5665 21.4788C39.4722 22.0301 39.425 22.5908 39.4439 23.1515C39.5288 24.7387 40.0569 26.1453 41.368 27.1337C42.1225 27.6944 42.9336 28.1506 43.8863 28.3597C44.5653 28.5118 45.235 28.6639 45.9235 28.5878C47.0271 28.4738 48.0646 27.9891 48.8568 27.2097C49.1115 26.9531 49.3756 26.706 49.6397 26.4684C49.7434 26.3924 49.866 26.3354 49.9886 26.2974V30.4981C49.6019 30.7167 49.1586 31.0018 48.6965 31.2299C47.9419 31.5911 47.1119 31.7907 46.2725 31.7907C45.584 31.8097 44.8955 31.9237 44.2069 31.8857C43.4807 31.8192 42.7639 31.6956 42.0659 31.5151C40.8775 31.2394 39.8777 30.6027 38.9817 29.7853C38.0668 28.968 37.35 27.9511 36.8596 26.8201C36.6804 26.3544 36.52 25.8887 36.3974 25.404C36.0673 24.2635 35.9447 23.0755 36.0201 21.8875C36.0767 21.0321 36.2371 20.1768 36.4917 19.3594C36.8218 18.3045 37.35 17.3161 38.0291 16.4512C38.6233 15.6719 39.359 15.0066 40.1984 14.5124C40.9341 14.0562 41.7452 13.7426 42.5941 13.581C43.1977 13.4764 43.8108 13.4004 44.4239 13.3149C44.7163 13.2579 45.0086 13.2198 45.301 13.2103C45.9707 13.2103 46.6404 13.2483 47.3006 13.3339C48.8285 13.562 50.3093 13.9897 51.5355 14.9686C52.7993 15.9855 53.7802 17.24 54.3273 18.7892C54.7046 19.8536 54.6291 20.9561 54.6291 22.0491C54.6291 23.6552 54.6291 25.2614 54.6291 26.8676C54.6291 28.3502 54.6291 29.8328 54.6291 31.3155C54.6574 31.42 54.648 31.5151 54.6291 31.6006Z" fill="#499BE9"/>
<path d="M23.5418 12.8207C21.0518 12.8207 18.6561 13.8186 16.8924 15.5863C15.1381 17.3636 14.1477 19.7681 14.1477 22.2772C14.1477 24.7862 15.1381 27.1907 16.9018 28.968C18.6656 30.7452 21.0518 31.7337 23.5513 31.7337C24.7868 31.7337 26.013 31.4866 27.1542 31.0114C28.2955 30.5362 29.333 29.8424 30.2101 28.9585C31.0873 28.0841 31.7758 27.0387 32.2474 25.8887C32.719 24.7387 32.9642 23.5127 32.9642 22.2677C32.9642 21.0226 32.719 19.7966 32.2474 18.6466C31.7758 17.4967 31.0778 16.4607 30.2101 15.5768C29.333 14.7025 28.2955 13.9992 27.1542 13.524C26.0035 13.0583 24.7774 12.8207 23.5418 12.8207ZM23.5418 28.3978C22.7401 28.3978 21.9478 28.2362 21.2122 27.9321C20.4765 27.6279 19.8068 27.1717 19.2409 26.6015C18.675 26.0313 18.2317 25.3565 17.9205 24.6152C17.6186 23.8738 17.4583 23.0755 17.4583 22.2772C17.4583 20.652 18.0997 19.1028 19.2409 17.9528C20.3822 16.8029 21.929 16.1566 23.5418 16.1566C24.3435 16.1566 25.1358 16.3087 25.8715 16.6223C26.6072 16.9264 27.2768 17.3826 27.8427 17.9433C28.4086 18.5136 28.8614 19.1884 29.1632 19.9297C29.465 20.671 29.6253 21.4693 29.6253 22.2772C29.6253 23.085 29.465 23.8738 29.1632 24.6247C28.8614 25.366 28.4086 26.0408 27.8427 26.611C27.2768 27.1812 26.6072 27.6279 25.8715 27.9321C25.1358 28.2457 24.3435 28.3978 23.5418 28.3978Z" fill="#499BE9"/>
<path d="M0.0282487 5.22693H3.70666V5.67362C3.70666 11.1574 3.70666 16.6412 3.70666 22.1251C3.68779 22.5432 3.68779 22.9709 3.71609 23.3891C3.80098 24.2254 3.99904 25.0428 4.30086 25.8221C4.60268 26.5539 4.98938 27.2002 5.68734 27.6184C6.21552 27.9605 6.82859 28.1601 7.45109 28.2171C8.017 28.2551 8.58291 28.2932 9.14882 28.2837C10.1392 28.2647 11.1295 28.2171 12.1576 28.1791V31.553C12.0538 31.5911 11.9501 31.6196 11.8463 31.6291C10.6202 31.6291 9.40347 31.6481 8.17734 31.6291C7.58313 31.6386 6.98893 31.5911 6.40416 31.496C5.15916 31.2489 3.97075 30.8497 2.95211 30.0324C2.15984 29.3956 1.377 28.7399 0.924271 27.818C0.66018 27.2762 0.45268 26.706 0.320635 26.1167C-0.188683 23.7597 0.0754078 21.3647 0.0565442 18.9887C0.0188169 14.5219 0.0471124 10.0645 0.0471124 5.59758L0.0282487 5.22693Z" fill="#499BE9"/>
<path d="M144.684 12.5166C144.297 12.3741 143.948 12.184 143.571 12.1175C143.203 12.0509 142.788 12.0985 142.326 12.0985C142.468 11.8609 142.571 11.6613 142.703 11.4902C143.684 10.0931 144.675 8.71504 145.646 7.31795C146.835 5.61673 148.004 3.90601 149.192 2.19529C149.532 1.70108 149.843 1.18786 150.23 0.731671C150.881 -0.0476574 152.003 -0.351786 152.937 0.579607C154.569 2.2333 156.219 3.86799 157.851 5.51219C158.172 5.83532 158.492 6.16796 158.813 6.4911C158.917 6.56713 159.03 6.64317 159.143 6.70019C159.209 5.0655 159.275 3.50684 159.341 1.91017H162.972C163.02 4.57129 162.972 7.24192 163.001 9.96957L166 13.0109L161.067 12.6592L152.296 3.92502C151.72 3.66841 151.239 3.73494 150.852 4.22915C150.588 4.56179 150.353 4.91344 150.098 5.25558C149.343 6.26301 148.579 7.27043 147.834 8.27785C147.136 9.21875 146.457 10.1787 145.759 11.1291C145.42 11.5853 145.061 12.0319 144.684 12.5166Z" fill="#499BE9"/>
<path d="M150.89 13.6001H153.984V31.4866H150.89V13.6001Z" fill="#10375C"/>
<path d="M109.918 13.0869C108.06 13.0869 106.24 13.6381 104.693 14.6836C103.146 15.7195 101.939 17.2021 101.232 18.9319C100.524 20.6616 100.336 22.5624 100.694 24.3967C101.062 26.231 101.948 27.9132 103.269 29.2342C104.58 30.5553 106.259 31.4582 108.079 31.8193C109.899 32.1805 111.795 31.9999 113.512 31.2776C115.228 30.5648 116.7 29.3483 117.728 27.7991C118.765 26.2405 119.312 24.4157 119.312 22.5434C119.312 20.0343 118.322 17.6298 116.558 15.8526C114.795 14.0848 112.408 13.0869 109.918 13.0869ZM109.918 28.6735C108.711 28.6735 107.542 28.3123 106.542 27.6471C105.542 26.9723 104.759 26.0219 104.306 24.9004C103.844 23.7789 103.722 22.5529 103.957 21.3649C104.193 20.1769 104.769 19.0839 105.617 18.2286C106.466 17.3732 107.551 16.7935 108.73 16.5559C109.909 16.3183 111.135 16.4418 112.239 16.9075C113.352 17.3732 114.304 18.1525 114.964 19.16C115.634 20.1674 115.992 21.3459 115.992 22.5624C115.992 24.1876 115.351 25.7367 114.21 26.8867C113.069 28.0367 111.531 28.6735 109.918 28.6735Z" fill="#10375C"/>
</g>
<defs>
<clipPath id="clip0_102_16">
<rect width="166" height="32" fill="white"/>
</clipPath>
</defs>
</svg>
